<svg id="Glyph" height="512" viewBox="0 0 64 64" width="512" xmlns="http://www.w3.org/2000/svg"><path d="m27 6h-6a1 1 0 0 0 -1 1v10a1 1 0 0 0 1 1h6a1 1 0 0 0 1-1v-10a1 1 0 0 0 -1-1z"/><path d="m48.586 4h-.586v17a1 1 0 0 1 -1 1h-30a1 1 0 0 1 -1-1v-17h-6.072a1.93 1.93 0 0 0 -1.928 1.928v52.144a1.93 1.93 0 0 0 1.928 1.928h44.144a1.93 1.93 0 0 0 1.928-1.928v-46.658zm-35.586 53h-2v-2h2zm19-12a7 7 0 1 1 7-7 7.008 7.008 0 0 1 -7 7zm21 12h-2v-2h2z"/><path d="m31 37h2v2h-2z"/><path d="m34.5 33.379h2v4.243h-2z" transform="matrix(.707 -.707 .707 .707 -14.705 35.5)"/></svg>